<svg width="76" height="76" viewBox="0 0 76 76" fill="none" xmlns="http://www.w3.org/2000/svg">
<path d="M59.1964 9.28617L51.5964 5.27693C44.9236 1.76025 41.5872 0 38 0C34.4128 0 31.0764 1.75643 24.4036 5.27693L23.1838 5.92223L57.0912 25.3919L72.352 17.717C69.8972 14.922 65.9376 12.8334 59.1964 9.27854M75.0424 22.7725L59.85 30.4092V42.0016C59.85 42.7611 59.5497 43.4895 59.0153 44.0266C58.4808 44.5636 57.7559 44.8654 57 44.8654C56.2441 44.8654 55.5192 44.5636 54.9847 44.0266C54.4503 43.4895 54.15 42.7611 54.15 42.0016V33.2729L40.85 39.955V76C43.5784 75.3165 46.683 73.6823 51.5964 71.0896L59.1964 67.0804C67.3702 62.7695 71.459 60.616 73.7314 56.7404C76 52.8686 76 48.046 76 38.4124V37.9656C76 30.7375 76 26.2166 75.0424 22.7725ZM35.15 76V39.955L0.9576 22.7725C3.39746e-07 26.2166 0 30.7375 0 37.958V38.4047C0 48.046 -4.52995e-07 52.8686 2.2686 56.7404C4.541 60.616 8.6298 62.7733 16.8036 67.0842L24.4036 71.0896C29.317 73.6823 32.4216 75.3165 35.15 76ZM3.648 17.7209L38 34.9797L50.9618 28.4695L17.195 9.07998L16.8036 9.28617C10.0662 12.8372 6.1028 14.9258 3.648 17.7247" fill="#287BDD"/>
</svg>
