<svg width="111" height="66" viewBox="0 0 111 66" fill="none" xmlns="http://www.w3.org/2000/svg">
<path d="M56.0897 3.6441L39.3009 17.1204C36.5086 19.355 35.9709 23.3772 38.0869 26.2478C40.3242 29.3075 44.6775 29.9091 47.678 27.5886L64.9003 14.3186C66.1144 13.3904 67.8488 13.5966 68.8027 14.7999C69.7566 16.0031 69.5311 17.722 68.317 18.6674L64.6922 21.4521L88.8 43.4542V11.0011H88.6786L88.0022 10.5713L75.4106 2.57837C72.757 0.893836 69.6525 0 66.4959 0C62.715 0 59.0381 1.28919 56.0897 3.6441ZM60.0441 25.0274L51.0773 31.9374C45.6141 36.166 37.688 35.0659 33.5948 29.4966C29.7445 24.2539 30.7158 16.9313 35.7975 12.8575L50.2275 1.28919C48.2156 0.446918 46.0477 0.0171889 43.845 0.0171889C40.5844 -2.62542e-07 37.4105 0.962593 34.6875 2.75026L22.2 11.0011V49.5048H27.0909L42.9431 63.8405C46.3425 66.9174 51.5977 66.6767 54.7022 63.3076C55.6561 62.2591 56.2978 61.0387 56.6273 59.7667L59.5758 62.4482C62.9578 65.525 68.2303 65.3016 71.3348 61.9497C72.1153 61.1074 72.6877 60.1277 73.0519 59.1135C76.4166 61.3481 80.9953 60.884 83.8223 57.8243C86.9269 54.4724 86.7014 49.2469 83.3194 46.1701L60.0441 25.0274ZM2.775 11.0011C1.24875 11.0011 0 12.2387 0 13.7513V49.5048C0 52.5472 2.48016 55.0053 5.55 55.0053H11.1C14.1698 55.0053 16.65 52.5472 16.65 49.5048V11.0011H2.775ZM8.325 44.0042C9.06098 44.0042 9.76681 44.294 10.2872 44.8098C10.8076 45.3255 11.1 46.0251 11.1 46.7545C11.1 47.4839 10.8076 48.1835 10.2872 48.6992C9.76681 49.215 9.06098 49.5048 8.325 49.5048C7.58902 49.5048 6.88319 49.215 6.36278 48.6992C5.84237 48.1835 5.55 47.4839 5.55 46.7545C5.55 46.0251 5.84237 45.3255 6.36278 44.8098C6.88319 44.294 7.58902 44.0042 8.325 44.0042ZM94.35 11.0011V49.5048C94.35 52.5472 96.8302 55.0053 99.9 55.0053H105.45C108.52 55.0053 111 52.5472 111 49.5048V13.7513C111 12.2387 109.751 11.0011 108.225 11.0011H94.35ZM99.9 46.7545C99.9 46.0251 100.192 45.3255 100.713 44.8098C101.233 44.294 101.939 44.0042 102.675 44.0042C103.411 44.0042 104.117 44.294 104.637 44.8098C105.158 45.3255 105.45 46.0251 105.45 46.7545C105.45 47.4839 105.158 48.1835 104.637 48.6992C104.117 49.215 103.411 49.5048 102.675 49.5048C101.939 49.5048 101.233 49.215 100.713 48.6992C100.192 48.1835 99.9 47.4839 99.9 46.7545Z" fill="#287BDD"/>
</svg>
