<svg width="30" height="30" viewBox="0 0 30 30" fill="none" xmlns="http://www.w3.org/2000/svg">
<path d="M2 13.5556C2 8.10856 2 5.38433 3.69289 3.69289C5.38578 2.00144 8.10856 2 13.5556 2H16.4444C21.8914 2 24.6157 2 26.3071 3.69289C27.9986 5.38578 28 8.10856 28 13.5556V16.4444C28 21.8914 28 24.6157 26.3071 26.3071C24.6142 27.9986 21.8914 28 16.4444 28H13.5556C8.10856 28 5.38433 28 3.69289 26.3071C2.00144 24.6142 2 21.8914 2 16.4444V13.5556Z" stroke="#0468ED" stroke-width="2.88889"/>
<path d="M22.9445 8.49992C22.9445 9.29766 22.2978 9.94436 21.5 9.94436C20.7023 9.94436 20.0556 9.29766 20.0556 8.49992C20.0556 7.70217 20.7023 7.05547 21.5 7.05547C22.2978 7.05547 22.9445 7.70217 22.9445 8.49992Z" fill="#0468ED" stroke="#0468ED" stroke-width="1.44444"/>
<path d="M15 19.3334C17.3932 19.3334 19.3333 17.3933 19.3333 15.0001C19.3333 12.6068 17.3932 10.6667 15 10.6667C12.6068 10.6667 10.6667 12.6068 10.6667 15.0001C10.6667 17.3933 12.6068 19.3334 15 19.3334Z" stroke="#0468ED" stroke-width="2.88889"/>
</svg>
